<?xml version="1.0" encoding="utf-8"?>
<!-- Generator: Adobe Illustrator 19.2.1, SVG Export Plug-In . SVG Version: 6.00 Build 0)  -->
<!DOCTYPE svg PUBLIC "-//W3C//DTD SVG 1.1//EN" "http://www.w3.org/Graphics/SVG/1.1/DTD/svg11.dtd">
<svg version="1.1" id="icons" xmlns="http://www.w3.org/2000/svg" xmlns:xlink="http://www.w3.org/1999/xlink" x="0px" y="0px"
	 viewBox="0 0 392 325.5" style="enable-background:new 0 0 392 325.5;" xml:space="preserve">
<style type="text/css">
	.st0{fill:#E2E2E2;}
	.st1{fill:#FFFFFF;}
</style>
<path id="shoes" class="st0" d="M293.5,237.9c-3.5-0.8-6.9-1.9-10.2-3.4l-1.2-0.5l0.9-1c3.5-4,9-8.8,15-8.2l0.4,0l0.3,0.3
	c1.4,1.4,3.1,2.3,5.1,2.8c11.2,2.6,28.7-10.5,34.4-14.7l0.8-0.6l0.6,0.9c3.6,5.2,2.2,11.8-0.3,16.2l-0.1,0.2l-0.2,0.1
	c-1,0.4-2.1,0.6-3.1,0.5c-0.3,0-0.7,0-1,0c-3,0.4-6,1-9,1.7c-3.8,0.9-7.5,2-11.1,3.5c-0.9,0.5-1.8,1-2.7,1.5
	c-2.3,1.4-4.6,2.9-6.2,2.7C301.5,239.4,297.5,238.7,293.5,237.9z M285.4,233.2c2.8,1.1,5.7,2,8.6,2.7c3.9,0.9,7.8,1.5,11.8,1.8
	c1,0.1,3.4-1.4,5-2.4c1-0.6,2-1.2,3-1.7c3.7-1.5,7.5-2.7,11.4-3.6c3-0.7,6.1-1.3,9.2-1.7c0.4,0,0.8-0.1,1.2-0.1c0.6,0,1.3,0,1.9-0.1
	c2-3.6,3.1-8.7,0.8-12.9c-6.7,5-23.6,17.1-35.2,14.4c-2.1-0.5-4.1-1.5-5.7-3C292.6,226.4,288.1,230.3,285.4,233.2z M330.1,246.3
	L330.1,246.3c-0.5-0.1-0.8-0.6-0.8-1l0.9-13l2,0.2l-0.5,7.4l3.9-8.7l1.8,0.8l-6.3,13.8C331,246.2,330.5,246.4,330.1,246.3z"/>
<path id="dress" class="st0" d="M285.2,137c-0.6,0-1-0.4-1-1c0-4.3-0.7-5-2.1-5c-2.2,0-6.1,1.3-6.1,4c0,0.6-0.4,1-1,1s-1-0.4-1-1
	c0-2.7-3.9-4-6.1-4c-1.4,0-2.1,0.7-2.1,5c0,0.6-0.4,1-1,1s-1-0.4-1-1c0-2.6,0-7,4.1-7c2.4,0,5.5,1.1,7.1,3.1c1.6-2,4.7-3.1,7.1-3.1
	c4.1,0,4.1,4.4,4.1,7C286.2,136.6,285.7,137,285.2,137z M280.1,146H270c-2.4,0-6.2-1-6.2-10h2c0,3,0.5,8,4.1,8H280
	c3.7,0,4.2-5,4.2-8h2C286.2,145,282.4,146,280.1,146L280.1,146z M275.1,182c-5.2,0-16.1-1.2-16.1-5l0-0.2l7-33l2,0.4l-7,32.8
	c0.4,1.1,6.3,3,14.1,3c7.7,0,13.6-1.9,13.9-3l-7-32.8l2-0.4l7,33.2C291,180.8,280.3,182,275.1,182z M268,130c-0.6,0-1-0.4-1-1v-2
	c0-0.6,0.4-1,1-1s1,0.4,1,1v2C269,129.6,268.6,130,268,130z M282,130c-0.6,0-1-0.4-1-1v-2c0-0.6,0.4-1,1-1s1,0.4,1,1v2
	C283,129.6,282.6,130,282,130z M270,159C270,159,269.9,159,270,159c-0.6,0-1-0.5-1-1.1l1-12c0-0.6,0.5-1,1.1-0.9
	c0.6,0,1,0.5,0.9,1.1l-1,12C271,158.6,270.5,159,270,159z M280,159c-0.5,0-1-0.4-1-0.9l-1-12c0-0.6,0.4-1,0.9-1.1
	c0.6,0,1,0.4,1.1,0.9c0,0,0,0,0,0l1,12C281,158.5,280.6,158.9,280,159C280.1,159,280,159,280,159z M275,149c-0.6,0-1-0.4-1-1v-2
	c0-0.6,0.4-1,1-1s1,0.4,1,1v2C276,148.6,275.6,149,275,149z"/>
<path id="cake" class="st0" d="M231.5,107.7c-7.1,0-12.1,3.1-13.6,8.2c-0.1,0.5,0.2,1.1,0.7,1.2c0,0,0,0,0,0c0.1,0,0.2,0,0.3,0
	c0.4,0,0.8-0.3,1-0.7c1.2-4.3,5.6-6.8,11.7-6.8c0.5,0,1-0.5,1-1C232.4,108.1,232,107.7,231.5,107.7z M252.8,126.5
	c-0.2-0.2-0.5-0.4-0.8-0.4h-0.5c0.7-2.1,1.1-4.3,1.1-6.5c0-10.1-7.9-16.7-20.1-16.7s-20.1,6.5-20.1,16.7c0,2.2,0.4,4.4,1.1,6.4H213
	c-0.3,0-0.6,0.1-0.8,0.4c-0.2,0.2-0.3,0.5-0.2,0.8l4.4,18.9c0.1,0.4,0.5,0.8,1,0.8h30.2c0.5,0,0.9-0.3,1-0.8l4.4-18.9
	C253,127.1,253,126.8,252.8,126.5L252.8,126.5z M214.3,119.7c0-10.8,9.4-14.7,18.1-14.7s18.2,3.9,18.2,14.7c0,2.2-0.4,4.4-1.2,6.5
	h-33.9C214.8,124.1,214.4,121.9,214.3,119.7L214.3,119.7z M228.1,128.1l1.1,16.9h-5l-1.9-16.9L228.1,128.1L228.1,128.1z
	 M230.1,128.1h6.1l-1.1,16.9h-3.9L230.1,128.1z M238.2,128.1h5l-1.9,16.9h-4.2L238.2,128.1z M214.2,128.1h6l1.9,16.9h-4L214.2,128.1
	z M246.8,145h-3.6l1.9-16.9h5.6L246.8,145z M227.9,97.4c0,2.4,2,4.4,4.4,4.4c2.4,0,4.4-2,4.4-4.4c0-2.4-2-4.4-4.4-4.4c0,0,0,0,0,0
	C229.9,93,227.9,95,227.9,97.4L227.9,97.4z M234.7,97.4c0,1.3-1.1,2.4-2.4,2.4c-1.3,0-2.4-1.1-2.4-2.4c0-1.3,1.1-2.4,2.4-2.4
	C233.6,95,234.7,96.1,234.7,97.4L234.7,97.4z M228.3,89.9c2,0.3,2.1,1.2,2.1,1.4c0,0.5,0.4,1,0.9,1h0.1c0.5,0,1-0.4,1-0.9
	c0.1-1-0.7-2.9-3.8-3.4c-0.5-0.1-1.1,0.3-1.1,0.8C227.4,89.4,227.7,89.9,228.3,89.9L228.3,89.9L228.3,89.9z"/>
<path id="moveie_band" class="st0" d="M94.1,127c-13.3,0.1-24-10.6-24.1-23.9c-0.1-13.3,10.6-24,23.9-24.1s24,10.6,24.1,23.9
	c0,0,0,0.1,0,0.1C118,116.2,107.3,127,94.1,127z M94.1,81c-12.2-0.1-22,9.7-22.1,21.9c-0.1,12.2,9.7,22,21.9,22.1s22-9.7,22.1-21.9
	c0,0,0-0.1,0-0.1C116,90.9,106.2,81,94.1,81z M83.9,126.8c-10.2-0.1-19.3-6.5-22.7-16.1c-0.2-0.5,0-1.1,0.5-1.3s1.1,0,1.3,0.5
	c0,0.1,0,0.1,0.1,0.2c3.7,10.3,14.4,16.4,25.2,14.3c0.5-0.1,1.1,0.2,1.2,0.8c0.1,0.5-0.2,1.1-0.8,1.2
	C87.1,126.7,85.5,126.8,83.9,126.8L83.9,126.8z M85.8,118c-3.9,0-7.2-3.2-7.2-7.1c0-3.9,3.2-7.2,7.1-7.2c3.9,0,7.2,3.2,7.2,7.1
	c0,0,0,0,0,0C92.9,114.8,89.7,118,85.8,118z M85.8,105.7c-2.8,0-5.2,2.3-5.2,5.1s2.3,5.2,5.1,5.2s5.2-2.3,5.2-5.1c0,0,0,0,0,0
	C90.9,108,88.6,105.7,85.8,105.7z M85.8,101.3c-3.9,0-7.2-3.2-7.2-7.1c0-3.9,3.2-7.2,7.1-7.2c3.9,0,7.2,3.2,7.2,7.1c0,0,0,0,0,0
	C92.9,98.1,89.7,101.3,85.8,101.3L85.8,101.3z M85.8,89c-2.8,0-5.2,2.3-5.2,5.1s2.3,5.2,5.1,5.2s5.2-2.3,5.2-5.1c0,0,0,0,0,0
	C90.9,91.3,88.6,89,85.8,89L85.8,89z M102.4,118c-3.9,0-7.2-3.2-7.2-7.1c0-3.9,3.2-7.2,7.1-7.2c3.9,0,7.2,3.2,7.2,7.1c0,0,0,0,0,0
	C109.5,114.8,106.3,118,102.4,118L102.4,118z M102.4,105.7c-2.8,0-5.2,2.3-5.2,5.1c0,2.8,2.3,5.2,5.1,5.2s5.2-2.3,5.2-5.1
	c0,0,0,0,0,0C107.5,108,105.3,105.7,102.4,105.7L102.4,105.7z M102.4,101.3c-3.9,0-7.2-3.2-7.2-7.1c0-3.9,3.2-7.2,7.1-7.2
	s7.2,3.2,7.2,7.1c0,0,0,0,0,0C109.5,98.1,106.3,101.3,102.4,101.3L102.4,101.3z M102.4,89c-2.8,0-5.2,2.3-5.2,5.1
	c0,2.8,2.3,5.2,5.1,5.2s5.2-2.3,5.2-5.1c0,0,0,0,0,0C107.5,91.3,105.3,89,102.4,89C102.4,89,102.4,89,102.4,89L102.4,89z"/>
<path id="drinking" class="st0" d="M102.6,214.3L102.6,214.3c-6,0-12-6.5-14.3-15.4l-0.2-1l23.3-5.9l0.2,1c1.2,4.4,1.2,9.1,0,13.5
	c-1.3,4-3.8,6.7-7,7.5C104,214.2,103.3,214.3,102.6,214.3z M90.5,199.4c2.2,7.5,7.2,12.9,12.1,12.9h0c0.5,0,1-0.1,1.5-0.2
	c2.5-0.6,4.5-2.8,5.6-6.2c1.1-3.7,1.1-7.7,0.2-11.5L90.5,199.4z M108.2,231.8l-5-19.2l1.9-0.5l5,19.2L108.2,231.8z M103.3,233
	l-0.5-1.9l11.6-3l0.5,1.9L103.3,233z M70.4,214.3c-0.7,0-1.4-0.1-2-0.3c-3.2-0.8-5.7-3.5-7-7.5c-1.2-4.4-1.2-9.1,0-13.5l0.2-1
	l23.3,5.9l-0.2,1C82.4,207.8,76.4,214.3,70.4,214.3L70.4,214.3z M63.1,194.4c-0.9,3.8-0.9,7.7,0.2,11.5c1.1,3.4,3,5.6,5.6,6.2
	c0.5,0.1,1,0.2,1.5,0.2c4.9,0,9.9-5.4,12.1-12.9L63.1,194.4z M64.8,231.8l-1.9-0.5l5-19.2l1.9,0.5L64.8,231.8z M69.6,233L58,230
	l0.5-1.9l11.6,3L69.6,233z"/>
<path id="perfusion" class="st0" d="M283,95h-22c-1.7,0-3-1.3-3-3V57c0-1.7,1.3-3,3-3h22c1.7,0,3,1.3,3,3v35
	C286,93.7,284.7,95,283,95z M261,56c-0.6,0-1,0.4-1,1v35c0,0.6,0.4,1,1,1h22c0.6,0,1-0.4,1-1V57c0-0.6-0.4-1-1-1H261z M279,86.5
	c-2.9,0-5.7-1.2-7.8-3.3c-3.3-3.3-8.4-3.6-11.4-0.7c-0.4,0.4-1,0.4-1.4,0c-0.4-0.4-0.4-1,0-1.4l0,0c3.7-3.7,10.1-3.4,14.2,0.7
	c3.3,3.3,8.4,3.6,11.4,0.7c0.4-0.4,1-0.4,1.4,0c0.4,0.4,0.4,1,0,1.4C283.8,85.6,281.5,86.5,279,86.5z M277,55h-2c0-1.7-1.3-3-3-3
	s-3,1.3-3,3h-2c0-2.8,2.2-5,5-5S277,52.2,277,55z M275.8,99h-7.6c-1.2,0-2.1-0.9-2.2-2v-2h2v2c0.1,0,0.1,0,0.2,0h7.6
	c0.1,0,0.1,0,0.2-0.1l0-1.9h2v2C278,98.1,277,99,275.8,99z M283,108h-2c0-2.2-1.8-4-4-4v-2C280.3,102,283,104.7,283,108z M277,104
	c-3.3,0-6-2.7-6-6h2c0,2.2,1.8,4,4,4V104z M263.3,86.8c0.8,0,1.5-0.7,1.5-1.5s-0.7-1.5-1.5-1.5s-1.5,0.7-1.5,1.5
	S262.5,86.8,263.3,86.8L263.3,86.8z M267.4,91.7c0.8,0,1.5-0.7,1.5-1.5s-0.7-1.5-1.5-1.5s-1.5,0.7-1.5,1.5S266.6,91.7,267.4,91.7
	L267.4,91.7z M275.1,90.8c0.8,0,1.5-0.7,1.5-1.5s-0.7-1.5-1.5-1.5s-1.5,0.7-1.5,1.5S274.3,90.8,275.1,90.8L275.1,90.8z M281.1,92.7
	c0.8,0,1.5-0.7,1.5-1.5s-0.7-1.5-1.5-1.5s-1.5,0.7-1.5,1.5S280.3,92.7,281.1,92.7L281.1,92.7z M272,78c-0.6,0-1-0.4-1-1v-8
	c0-0.6,0.4-1,1-1s1,0.4,1,1v8C273,77.6,272.6,78,272,78z M276,74h-8c-0.6,0-1-0.4-1-1s0.4-1,1-1h8c0.6,0,1,0.4,1,1S276.6,74,276,74z
	"/>
<path id="birds" class="st0" d="M173,141c-0.5,0-1-0.4-1-1c0-0.2,0.1-0.4,0.2-0.6c0.2-0.2,1.5-2.4-1.1-4.7c-0.9-1-2.2-1.5-3.6-1.4
	c-1.3,0.3-2.4,1-3.1,2.1c-0.3,0.4-0.8,0.6-1.3,0.3c-0.4-0.2-0.7-0.7-0.5-1.2c0-0.1,1-3.3-2.3-6.2c-1.9-1.7-3.5-2.4-5-2.1
	c-1,0.3-1.9,0.9-2.5,1.8c-0.3,0.5-0.9,0.6-1.4,0.3c-0.4-0.3-0.6-0.8-0.4-1.2c0.8-1.5,2.3-2.5,3.9-2.9c2.1-0.4,4.3,0.5,6.7,2.6
	c1.7,1.4,2.8,3.4,3.1,5.6c0.7-0.5,1.6-0.9,2.5-1c1.9-0.2,3.8,0.5,5.2,1.9c3.3,2.8,2.4,6,1.4,7.3C173.6,140.8,173.3,141,173,141z
	 M130.8,104.9c-0.4,0-0.8-0.3-0.9-0.7c-0.3-1.1-0.1-2.2,0.5-3.2c0.8-1.1,2.2-1.7,4.2-1.9c1.2-0.1,2.4,0.2,3.4,0.8
	c0.1-0.4,0.3-0.7,0.6-1c0.8-1,2-1.5,3.2-1.5c1.9-0.3,3.7,0.9,4.1,2.8c0.1,0.5-0.3,1.1-0.8,1.1c-0.5,0.1-1.1-0.3-1.1-0.8
	c-0.1-0.3-0.4-1.2-2-1.1c-0.7,0-1.3,0.3-1.8,0.7c-0.3,0.5-0.5,1.2-0.4,1.8c0.1,0.5-0.3,1.1-0.8,1.2c-0.4,0.1-0.9-0.1-1.1-0.5
	c-0.7-1-1.9-1.6-3.2-1.4c-1-0.1-2,0.3-2.6,1c-0.3,0.4-0.3,1-0.2,1.5c0.2,0.5-0.1,1.1-0.7,1.2c0,0,0,0,0,0
	C131,104.9,130.9,104.9,130.8,104.9L130.8,104.9z M124.2,126c-0.4,0-0.8-0.3-1-0.7c-0.5-1.7-0.2-3.6,0.8-5.1c1.3-1.8,3.6-2.8,6.9-3
	c2.4-0.2,4.7,0.5,6.6,1.9c0.2-1,0.6-1.9,1.2-2.7c1.3-1.6,3.2-2.5,5.2-2.5c4.6-0.3,6.3,2.7,6.6,4.4c0.1,0.5-0.3,1.1-0.8,1.1
	c-0.5,0.1-1.1-0.3-1.1-0.8c-0.1-0.3-0.6-3-4.5-2.7c-1.5,0-2.8,0.6-3.8,1.7c-0.8,1.2-1,2.6-0.8,3.9c0.1,0.5-0.2,1-0.7,1.1
	c-0.5,0.2-1-0.1-1.2-0.5c-0.1-0.1-1.8-3.3-6.5-3c-2.7,0.2-4.5,0.9-5.4,2.2c-0.6,1-0.8,2.2-0.5,3.3c0.2,0.5-0.1,1.1-0.7,1.2
	c0,0,0,0,0,0C124.4,126,124.3,126,124.2,126z M163.1,117.9c-7.7,0-13.9-6.2-13.9-13.9S155.4,90,163.1,90c7.7,0,13.9,6.2,13.9,13.9
	c0,0,0,0,0,0C177,111.6,170.8,117.9,163.1,117.9L163.1,117.9z M163.1,92c-6.6,0-11.9,5.3-11.9,11.9c0,6.6,5.3,11.9,11.9,11.9
	c6.6,0,11.9-5.3,11.9-11.9c0,0,0,0,0,0C175,97.3,169.7,92,163.1,92L163.1,92z"/>
<path id="directions" class="st0" d="M177.7,166c0.2,0,0.5-0.1,0.6-0.2c0.6-0.1,1.2-0.4,1.7-0.9l3.8-3.9c1.1-1.1,1.1-2.9,0-4l-3.9-4
	c-0.6-0.6-1.4-1-2.3-1h-8.8v-1.5c0-1.9-1.6-3.5-3.5-3.5s-3.5,1.6-3.5,3.5v1.5h-8.6c-1.9,0.1-3.4,1.7-3.4,3.6v6.8
	c0,1.9,1.5,3.5,3.4,3.6h8.6v2l-8.9,0c-0.9-0.1-1.7,0.2-2.4,0.8l-3.9,3.9c-1.1,1.1-1.1,2.8,0,3.9c0,0,0,0,0,0l3.9,3.8
	c0.5,0.5,1.2,0.8,1.9,0.8c0.1,0,0.2,0,0.2,0c0.2,0,0.3,0,0.5-0.1h8.6v19h2v-19h3v19h2v-19h8.5c1.7,0,3.6-1.1,3.6-3v-6.8
	c-0.1-1.9-1.7-3.3-3.6-3.2l-8.5,0v-2H177.7L177.7,166z M163.9,150.5c0-0.8,0.7-1.5,1.5-1.5s1.5,0.7,1.5,1.5v1.5h-3V150.5z
	 M151.9,162.4v-6.8c0-0.8,0.6-1.5,1.4-1.6h24.4c0.3,0,0.6,0.1,0.9,0.4l3.9,4c0.3,0.3,0.3,0.9,0,1.2l-3.9,3.9
	c-0.2,0.2-0.4,0.3-0.6,0.3l0,0h-0.1l-0.1,0c-0.2,0-0.4,0.1-0.5,0.2h-24C152.5,163.9,151.9,163.2,151.9,162.4L151.9,162.4z
	 M179,171.2v6.8c-0.2,0.7-0.8,1.1-1.5,1H153c-0.2,0-0.3,0-0.5,0.1c-0.1,0-0.3-0.1-0.4-0.2l-3.9-3.8c-0.3-0.3-0.3-0.8,0-1.1
	c0,0,0,0,0,0l3.9-3.9c0.1-0.1,0.2-0.1,0.3-0.2h25.1C178.2,170,178.8,170.5,179,171.2L179,171.2z M166.9,168h-3v-2h3V168L166.9,168z"
	/>
<g>
	<path class="st0" d="M101.8,54.6c-3.8,0-6.9,2.5-6.9,5.5c0,1.8,1.1,3.4,2.8,4.4l2-1.2c-1.7-0.6-2.8-1.8-2.8-3.2
		c0-2,2.2-3.5,4.9-3.5c2.2,0,4.1,1.1,4.7,2.6l1.7-1.1C107.3,56.1,104.7,54.6,101.8,54.6z"/>
	<path class="st0" d="M114.8,35c3.5,0,6.4-2.1,6.9-4.8c-0.7-0.1-1.3-0.3-2-0.4c-0.2,1.8-2.3,3.2-4.9,3.2c-2.7,0-4.9-1.6-4.9-3.5
		c0-0.2,0-0.3,0.1-0.5c-0.7,0-1.4,0-2,0c0,0.2-0.1,0.4-0.1,0.5C107.9,32.5,111,35,114.8,35z"/>
	<path class="st0" d="M109.9,48.3c-0.1,0-0.2,0-0.3-0.1c-0.1-0.1-0.2-0.1-0.2-0.2c-0.1-0.1-0.2-0.2-0.4-0.3l-1.1,1.6
		c0.1,0,0.1,0.1,0.2,0.1c0.2,0.2,0.4,0.4,0.7,0.5c0.2,0.1,0.5,0.2,0.7,0.2c0.1,0,0.2,0,0.3,0.1l0,0c0,0-0.1,0-0.1-0.1l1.2-1.6
		C110.6,48.5,110.2,48.4,109.9,48.3z"/>
	<path class="st0" d="M111.8,42.7c-3.8,0-6.9,2.5-6.9,5.5c0,3.1,3.1,5.5,6.9,5.5c3.8,0,6.9-2.5,6.9-5.5
		C118.7,45.2,115.6,42.7,111.8,42.7z M111.8,51.8c-2.7,0-4.9-1.6-4.9-3.6s2.2-3.6,4.9-3.6l0,0c2.7,0,4.9,1.6,4.9,3.6
		S114.5,51.8,111.8,51.8z"/>
	<path class="st0" d="M141,39.9c-0.2-16.8-23.4-16.8-37.3-16.8c-0.4,0-0.8,0.3-1,0.7L88.2,70.6c0,0.1-0.1,0.2-0.1,0.3l0,0.1
		c0,0,0,0.1,0,0.1c0,0.6,0.4,1,1,1c0.3,0,0.6-0.2,0.8-0.4L140.3,41c0.4-0.1,0.7-0.5,0.7-1C141,40,141,39.9,141,39.9z M97.7,64.6
		l-6.9,4.2L99,42.4c-0.3-0.1,1.9,0,1.7-0.1c0.2-0.6-0.2-0.7-0.1-1.3c0.2,0.1-1.3-0.6-1-0.5l2.1-6.7c-0.4,0,1.8-0.4,1.4-0.3
		c0.2-0.7-0.2-0.9,0.1-1.6c0.3,0-1.6-0.2-1.3-0.2l0,0c0.2,0,0.3,0,0.5,0l0.9-2.8c0.6,0,2.4-0.1,4.8-0.1c0-0.4,0.2,0.9,0.3,0.5
		c0.8-0.1-0.3,0,0.5,0c-0.3,0.4,1.3-0.4,1.2,0c2.9,0.1,6.4-0.2,9.8,0.4c0-0.1,0-0.2,0-0.4c0-0.3,0.1,0.6,0,0.4
		c0.7,0.2,2.1,0.4,2.8,0.5c0,0.1-0.7-1-0.7-0.9c0,0.2,0,0.5-0.1,0.7c4.1,0.9,8,2.3,10.5,4.6c1.8,1.6,2.9,3.9,2.8,6.3c0,0,0,0,0,0
		c0,0.2,0.1,0.4,0.2,0.6l-27,16.5c0.2,0.3-0.5-1-0.4-0.6c-0.2,0.1-0.3,0.2-0.5,0.3c-0.5,0.5-0.9-0.6-1.4-0.1c0,0,1,0.3,0.9,0.3
		c0.1-0.3-0.7,0.1-0.7-0.2c0-0.3,0.4,1.7,0.3,1.4l-6.8,4.2 M137,40.6c-0.1-2.8-1.3-5.5-3.4-7.3c-7.5-6.9-25.3-6.5-29.8-6.3l0.6-1.9
		c17.3,0,34.1,1.3,34.6,14.4L137,40.6z"/>
	<path class="st0" d="M100.8,49l-2-0.1c0,0.6,0,1.3,0.1,1.9c0,0.3,0.1,0.5,0.1,0.8l2-0.1c0-0.3,0-0.6-0.1-0.9
		C100.8,50.1,100.8,49.6,100.8,49z"/>
	<path class="st0" d="M119.9,43.3l-1.5,1.3c0.3,0.3,0.6,0.6,0.9,1c0.3,0.3,0.6,0.6,0.9,0.9l1.6-1.2c-0.3-0.4-0.7-0.8-1-1.1
		C120.4,43.9,120.1,43.6,119.9,43.3z"/>
	<path class="st0" d="M111.8,41.3c0.7-0.3,1.4-0.5,2.2-0.6l-0.3-2c-0.9,0.2-1.7,0.4-2.6,0.7L111.8,41.3L111.8,41.3z"/>
	<path class="st0" d="M126.8,33.8c-3.8,0-6.9,2.5-6.9,5.5s3.1,5.5,6.9,5.5c3.8,0,6.9-2.5,6.9-5.5S130.7,33.8,126.8,33.8z
		 M126.8,42.9c-2.7,0-4.9-1.6-4.9-3.5s2.2-3.6,4.9-3.6l0,0c2.7,0,4.9,1.6,4.9,3.6C131.7,41.3,129.6,42.9,126.8,42.9z"/>
	<path class="st0" d="M108.7,37.4c0-2.9-2.9-5.3-6.5-5.5l-0.6,2c0,0,0.1,0,0.1,0c2.7,0,4.9,1.6,4.9,3.6c0,2-2.2,3.6-4.9,3.6
		c-0.8,0-1.5-0.1-2.2-0.4L99,42.4c0.9,0.3,1.8,0.5,2.8,0.5C105.6,42.9,108.7,40.4,108.7,37.4z"/>
	<path class="st0" d="M100.9,58.7c-0.4,0.4-0.9,0.8-1.4,1.1l1,1.7l0,0c0.7-0.4,1.3-0.8,1.8-1.4l0.1-0.1l-1.3-1.5L100.9,58.7z"/>
	<path class="st0" d="M106.5,30.1c-0.2-0.3-0.4-0.5-0.6-0.7l-1.4,1.4c0.2,0.2,0.3,0.3,0.4,0.5c0.4,0.6,1,1.2,1.6,1.5l0.8-1.8
		C107.1,30.8,106.8,30.5,106.5,30.1z"/>
</g>
<path id="statistics" class="st0" d="M180,234h-42v-30h42V234z M140,232h38v-26h-38V232z M152.2,246l-1.4-1.4l8.5-8.5l8.5,8.5
	l-1.4,1.4l-7.1-7L152.2,246z M143.7,226.6l-1.3-1.5l9.6-8.5l6,4l8.1-8l4.8,3.9l3.4-5.1l1.7,1.1l-4.6,6.9l-5.2-4.1l-7.9,7.9l-6-4
	L143.7,226.6z"/>
<path id="boat" class="st0" d="M254,202h-45c-0.4,0-0.8-0.2-0.9-0.6l-2-5c-0.2-0.5,0.1-1.1,0.6-1.3c0.1,0,0.2-0.1,0.4-0.1h49
	c0.6,0,1,0.4,1,1c0,0.1,0,0.2-0.1,0.4l-2,5C254.8,201.8,254.4,202,254,202z M209.7,200h43.6l1.2-3h-46L209.7,200z M249,192.1h-15
	c-0.6,0-1-0.4-1-1V152c0-0.4,0.2-0.7,0.5-0.9c0.3-0.2,0.7-0.1,1,0.1c12.9,8.9,19,24.8,15.4,40.1C249.9,191.7,249.5,192,249,192.1z
	 M235,190.1h13.2c0.5-2.5,0.8-5,0.8-7.5c0-11.2-5.2-21.7-14-28.6V190.1L235,190.1z M229,192.1h-16.6c-0.6,0-1-0.5-1-1
	c0-0.2,0.1-0.5,0.2-0.7c7.7-8.4,13.3-18.5,16.3-29.5c0.1-0.5,0.6-0.8,1.1-0.7c0.5,0.1,0.9,0.5,0.9,1v29.9
	C230,191.6,229.6,192.1,229,192.1L229,192.1z M214.6,190.1H228v-22.5C224.8,175.8,220.3,183.4,214.6,190.1z"/>
<path id="airplane" class="st0" d="M137.5,180.9l-7.7-23.5l-8.9,9v10.4l-3.8,3.9l-5.6-11.4l-11.3-5.7l3.8-3.9h10.3l8.9-9l-23.2-7.8
	l4-4.1l28.4,2.6l4.8-4.9c0.4-0.4,3.7-3.6,6.7-3.6c0.9,0,1.8,0.4,2.5,1c2.6,2.6-0.4,7.1-2.6,9.3l-4.8,4.9l2.6,28.7L137.5,180.9z
	 M103.5,163.1l9.4,4.7l4.7,9.5l1.3-1.3v-10.4l11.8-11.9l7.7,23.5l1.1-1.1l-2.6-28.7l5.5-5.6c1.2-1.2,4.1-4.9,2.6-6.4
	c-0.3-0.3-0.7-0.5-1.1-0.4c-1.8,0-4.4,2.2-5.2,3l-5.5,5.6l-28.4-2.6l-1.1,1.1l23.2,7.8l-11.8,11.9h-10.3L103.5,163.1z"/>
<path id="ozn" class="st0" d="M333.9,174h-2c0-8-5.8-13-13-13s-13,5-13,13h-2c0-8.3,6.7-15,14.9-15C327.2,159,333.9,165.7,333.9,174
	C333.9,174,333.9,174,333.9,174z M309.3,171.3c-0.6,0-1-0.4-1-1c0-0.1,0-0.2,0.1-0.3c1.2-3.3,3.9-5.9,7.3-6.9
	c0.5-0.2,1.1,0.1,1.2,0.7c0.2,0.5-0.1,1.1-0.7,1.2c-2.8,0.9-5,3-5.9,5.7C310.1,171,309.8,171.3,309.3,171.3L309.3,171.3z M296,189
	c-0.2,0-0.4-0.1-0.5-0.2c-0.5-0.3-0.6-0.9-0.3-1.4l9-14c0.3-0.5,0.9-0.6,1.4-0.3c0.5,0.3,0.6,0.9,0.3,1.4c0,0,0,0,0,0l-9,14
	C296.6,188.8,296.3,189,296,189z M341.9,189c-0.3,0-0.6-0.2-0.8-0.5l-9-14c-0.3-0.4-0.2-1.1,0.2-1.4c0.4-0.3,1.1-0.2,1.4,0.2
	c0,0,0,0.1,0.1,0.1l9,14c0.3,0.5,0.2,1.1-0.3,1.4c0,0,0,0,0,0C342.2,188.9,342.1,189,341.9,189z M341.9,189H296c-0.6,0-1-0.4-1-1
	s0.4-1,1-1h45.9c0.6,0,1,0.4,1,1S342.4,189,341.9,189z M332.9,175H305c-0.6,0-1-0.4-1-1s0.4-1,1-1h27.9c0.6,0,1,0.4,1,1
	S333.4,175,332.9,175z M308,185c-2.2,0-4-1.8-4-4c0-2.2,1.8-4,4-4s4,1.8,4,4c0,0,0,0,0,0C311.9,183.2,310.2,185,308,185z M308,179
	c-1.1,0-2,0.9-2,2s0.9,2,2,2c1.1,0,2-0.9,2-2c0,0,0,0,0,0C309.9,179.9,309.1,179,308,179z M318.9,185c-2.2,0-4-1.8-4-4
	c0-2.2,1.8-4,4-4s4,1.8,4,4c0,0,0,0,0,0C322.9,183.2,321.1,185,318.9,185L318.9,185z M318.9,179c-1.1,0-2,0.9-2,2s0.9,2,2,2
	c1.1,0,2-0.9,2-2c0,0,0,0,0,0C320.9,179.9,320,179,318.9,179L318.9,179z M329.9,185c-2.2,0-4-1.8-4-4c0-2.2,1.8-4,4-4s4,1.8,4,4
	c0,0,0,0,0,0C333.9,183.2,332.1,185,329.9,185L329.9,185z M329.9,179c-1.1,0-2,0.9-2,2s0.9,2,2,2c1.1,0,2-0.9,2-2c0,0,0,0,0,0
	C331.9,179.9,331,179,329.9,179L329.9,179z M303,201c-0.6,0-1-0.4-1-1v-6c0-0.6,0.4-1,1-1s1,0.4,1,1v6C304,200.6,303.5,201,303,201
	L303,201z M319,201c-0.6,0-1-0.4-1-1v-6c0-0.6,0.4-1,1-1s1,0.4,1,1v6C320,200.6,319.6,201,319,201C319,201,319,201,319,201L319,201z
	 M334,201c-0.6,0-1-0.4-1-1v-6c0-0.6,0.4-1,1-1s1,0.4,1,1v6C335,200.6,334.6,201,334,201C334,201,334,201,334,201L334,201z M306,202
	h-6c-0.6,0-1-0.4-1-1s0.4-1,1-1h6c0.6,0,1,0.4,1,1C307,201.6,306.5,202,306,202L306,202z M337,202h-6c-0.6,0-1-0.4-1-1s0.4-1,1-1h6
	c0.6,0,1,0.4,1,1S337.6,202,337,202L337,202z M322,202h-6c-0.6,0-1-0.4-1-1s0.4-1,1-1h6c0.6,0,1,0.4,1,1S322.6,202,322,202L322,202z
	 M341.9,192H295c-0.6,0-1-0.4-1-1s0.4-1,1-1h46.9c0.6,0,1,0.4,1,1C342.9,191.6,342.4,192,341.9,192L341.9,192z"/>
<path id="rocket" class="st0" d="M230,63.9l0.2-1.3c0.1-0.5,2.2-13.5,11.7-23C249.5,32,257.7,27,262.6,27c1.2-0.1,2.4,0.4,3.2,1.2
	c1.8,1.8,1.5,5.3-0.9,10c-2.8,5.1-6.4,9.8-10.5,13.8c-9.5,9.5-22.5,11.6-23,11.7L230,63.9z M262.6,28.9c-4.3,0-12.2,4.9-19.2,12
	c-7.2,7.2-10,16.9-10.8,20.5c3.6-0.8,13.3-3.6,20.5-10.8c4.1-3.9,7.5-8.4,10.2-13.3c1.9-3.7,2.3-6.6,1.2-7.7
	C263.9,29.1,263.2,28.9,262.6,28.9L262.6,28.9z M239.3,73.3L239.3,73.3c-0.5,0-1.1,0-1.6-0.1l-0.8-0.2l0.4-8.5l0.8-0.1
	c0.3-0.1,0.7-0.1,1.1-0.2c2.4-0.5,4.6-1.6,6.5-3.2l1-0.9l0.5,1.2c0.2,0.5,0.4,1,0.5,1.5c1,4.6-1.9,9.2-6.5,10.3
	C240.6,73.2,240,73.3,239.3,73.3L239.3,73.3z M239,71.3c0.1,0,0.2,0,0.4,0l0,0c0.5,0,1-0.1,1.4-0.2c3.5-0.8,5.8-4.3,5.1-7.8
	c-1.9,1.3-4,2.2-6.2,2.7c-0.1,0-0.3,0.1-0.4,0.1L239,71.3z M221,57.1l-0.2-0.8c-0.9-4.7,2.2-9.2,6.9-10c1.1-0.2,2.3-0.2,3.4,0.1
	c0.5,0.1,1,0.3,1.5,0.5l1.2,0.5l-0.9,1c-1.6,1.9-2.7,4.1-3.2,6.5c-0.1,0.4-0.2,0.7-0.2,1.1l-0.1,0.8L221,57.1z M229.3,48
	c-3.1,0-5.8,2.2-6.5,5.2c-0.1,0.6-0.2,1.2-0.2,1.8l5.2-0.3c0-0.1,0.1-0.3,0.1-0.4c0.5-2.2,1.4-4.3,2.7-6.2
	C230.2,48.1,229.7,48,229.3,48L229.3,48z M249.8,49c-2.7,0-4.9-2.2-4.9-4.9c0-2.7,2.2-4.9,4.9-4.9c1.3,0,2.5,0.5,3.4,1.4
	c1.9,1.9,1.9,5,0,6.9C252.3,48.5,251.1,49,249.8,49L249.8,49z M249.8,41.2c-1.6,0-2.9,1.3-2.9,2.9c0,0.8,0.3,1.5,0.9,2.1
	c1.2,1.1,3,1.1,4.2,0c1.1-1.1,1.1-3,0-4.1C251.3,41.5,250.6,41.2,249.8,41.2L249.8,41.2z M223.8,79c-0.5,0-1-0.4-1-1
	c0-0.1,0-0.2,0-0.3c0.3-0.9,0.5-1.9,0.6-2.9c-1.8,1.6-4.1,2.4-6.5,2.3c-0.7,0-1.4-0.1-2.1-0.2c-0.3-0.1-0.6-0.3-0.7-0.6
	c-0.1-0.3,0-0.7,0.2-1l3.3-3.8l-1.2,0.5c-0.4,0.1-0.8,0.1-1.1-0.2c-0.3-0.3-0.4-0.7-0.2-1.1c0.1-0.2,2.1-5.2,5.3-7.3
	c0.7-0.5,1.5-0.7,2.4-0.7c2.9,0,5.6,2.7,5.7,2.8c0.1,0.1,0.1,0.1,0.2,0.2c3.4,6.1-1.3,11.2-4.3,13C224.1,79,224,79,223.8,79z
	 M223.9,72.4c0.4,0,0.8,0.2,1.1,0.5c0.4,0.8,0.5,1.7,0.3,2.5c1.7-1.8,3.7-4.9,1.6-8.6c-0.7-0.7-2.6-2.1-4.2-2.1
	c-0.5,0-0.9,0.1-1.3,0.4c-1.4,1.1-2.6,2.5-3.4,4.2l2.5-1c0.5-0.2,1.1,0,1.3,0.5c0.1,0.3,0.1,0.7-0.2,1l-4.6,5.4
	c1.9,0.1,3.7-0.6,5.2-1.8C222.6,72.9,223.2,72.5,223.9,72.4L223.9,72.4z"/>
<g>
	<polygon class="st1" points="377.5,36.2 377.5,296.5 217.8,296.5 217.8,311 174.2,311 174.2,296.5 14.5,296.5 14.5,36.2 0,36.2 
		0,311 159.7,311 159.7,325.5 232.3,325.5 232.3,311 392,311 392,36.2 	"/>
	<path class="st1" d="M116.2,260.4c15.7,0,57.5,9.4,72.6,13v3.5l7.3-1.8l7.3,1.8v-3.5c15.1-3.5,56.9-13,72.6-13
		c19.2,0,77.6,14.1,78.1,14.3l9,2.2V16l-5.5-1.3C355,14.1,296.8,0,275.8,0c-19.2,0-69.7,11.8-79.8,14.3C185.8,11.8,135.3,0,116.1,0
		C95.2,0,37,14.1,34.6,14.7L29,16v260.8l9-2.2C38.6,274.5,97,260.4,116.2,260.4z M348.4,27.4v231c-17.7-4.1-56.3-12.5-72.6-12.5
		s-54.9,8.5-72.6,12.6v-231c15.1-3.5,56.9-12.9,72.6-12.9S333.3,23.9,348.4,27.4z M43.6,27.4c15.1-3.5,56.9-12.9,72.6-12.9
		s57.5,9.4,72.6,12.9v231c-17.7-4.1-56.3-12.5-72.6-12.5c-16.2,0-54.9,8.5-72.6,12.6V27.4z"/>
</g>
<path id="scooter" class="st0" d="M72.7,79h-9.7l-1-1c0-0.5,0-0.7,0-0.7c0-0.1,0-0.1,0-0.2c0-5.7,2.2-11.6,5.9-11.6
	s5.9,5.8,5.9,11.5v0.1c0,0.1,0,0.2,0,0.8L72.7,79z M64,77h7.7c0-5.4-2-9.5-3.9-9.5C66.1,67.5,64.1,71.7,64,77L64,77z M60,79.7
	l0.1-0.7l-0.8,0.3c-1.7-2.1-3.3-4.4-3.3-7.1V57.1c0-6,5.6-11.3,12-11.3s12,5.3,12,11.3v15.1c0,2.8-2,5.2-3.4,7l-1.8-0.7
	c0-0.3,0.1-0.6,0.1-0.8C75,77.4,75,77,75,76.6c0-6.8-3.2-12.5-7.1-12.5c-3.9,0-7,5.6-7,12.5c0,0.4,0,0.8,0.1,1.2c0,0.3,0,0.5,0,0.8
	L60,79V79.7L60,79.7z M68,62.1c4.8,0,8.7,5.7,9,13.3c0.6-0.9,0.9-2,1-3.1V57.1c0-4.9-4.7-9.3-10-9.3s-10,4.3-10,9.3v15.1
	c0,1.1,0.4,2.1,0.9,3C59.3,67.8,63.2,62.1,68,62.1L68,62.1z M67.9,47.9c-3.8,0-6.9-3.1-6.9-6.9s3.1-6.9,6.9-6.9
	c3.8,0,6.9,3.1,6.9,6.9c0,0,0,0,0,0C74.8,44.8,71.7,47.9,67.9,47.9L67.9,47.9z M67.9,36c-2.7,0-4.9,2.2-4.9,4.9
	c0,2.7,2.2,4.9,4.9,4.9c2.7,0,4.9-2.2,4.9-4.9C72.8,38.2,70.6,36,67.9,36L67.9,36z M73.9,45c-0.6-0.1-1-0.6-1-1.2
	c0-0.6,0.4-1.1,1-1.1c0.1,0,1.5-0.2,2.3-2.7c1.3-3.9,6.1-4,6.3-4H87c0.6,0,1,0.4,1,1s-0.4,1-1,1h-4.5c0,0-3.6,0.3-4.4,2.8
	C76.8,44.7,74.1,45,73.9,45L73.9,45L73.9,45z M62,45L62,45c-0.1,0-2.9-0.3-4.2-4.2c-0.8-2.5-4.4-2.8-4.5-2.8H49c-0.6,0-1-0.4-1-1
	s0.4-1,1-1h4.3c0.2,0,5.1,0.1,6.3,4c0.8,2.5,2.3,2.6,2.3,2.6c0.6,0.1,1,0.7,0.9,1.3C62.9,44.4,62.5,44.9,62,45L62,45z M68,90
	c-2.1,0-3.9-1.6-4-3.7V81l1-1h6l1,1v5.3C71.9,88.4,70.1,90,68,90z M66,82v4.3c0.2,1.1,1.2,1.9,2.3,1.7c0.9-0.1,1.5-0.8,1.7-1.7V82
	H66z"/>
<path id="fish" class="st0" d="M261.7,225.6c0.1-0.2,0.2-0.5,0.1-0.8c-0.2-0.5-0.7-0.8-1.2-0.6l0,0l-39,12.7
	c-0.5,0.2-0.8,0.7-0.6,1.3c0.2,0.5,0.7,0.8,1.2,0.6c0,0,0,0,0,0l39-12.7C261.4,226,261.6,225.9,261.7,225.6z M222.3,238.7
	c0.2-0.4,0.3-0.8,0.2-1.2c-0.2-0.7-0.7-1.3-1.3-1.6c-0.1-0.1-0.2-0.1-0.2-0.1c-0.8-0.5-1.4-0.9-2.1-1.2c-1.7-0.8-3.2-1.9-4.4-3.4
	l-1.5,1.3c1.4,1.6,3.1,2.9,5,3.8c0.6,0.3,1.3,0.7,1.9,1.1c0.1,0.1,0.2,0.1,0.3,0.2c0.1,0.1,0.2,0.2,0.4,0.3
	c-0.1,0.1-0.2,0.2-0.3,0.3c-0.1,0.1-0.2,0.2-0.3,0.4c-0.9,1.2-1.8,2.4-2.6,3.7l-0.1,0.2c-0.8,1.1-2.4,3.2-3.6,2.8
	c-0.3-0.1-0.5-0.2-0.7-0.5c-0.2-0.6,0.8-1.9,1.4-2.8c0.4-0.5,0.8-1.1,1.1-1.7l0.4-0.9l-0.9-0.4c-1.9-0.9-2.8-1.4-3-3.2
	c0-1,0.5-1.9,1.3-2.3l-1.1-1.7c-1.5,0.9-2.3,2.4-2.2,4.1c0,2,1.3,3.7,3.1,4.4c-0.1,0.2-0.2,0.3-0.4,0.5c-1,1.4-2.2,3-1.7,4.5
	c0.3,0.9,1,1.5,1.9,1.7c2.6,0.9,4.7-2,5.8-3.5l0.2-0.2c0.7-1.2,1.6-2.4,2.4-3.6c0,0,0.1-0.1,0.2-0.2
	C221.8,239.4,222.1,239,222.3,238.7z M265.5,232.2c0.2-0.4,0.2-0.8-0.1-1.1c-1.2-1.5-2.2-3.2-2.9-5c-0.9-2-0.6-4.5-0.3-6.9
	c0.1-0.8,0.2-1.6,0.2-2.4c0-0.5-0.4-1-0.9-1.1c0,0,0,0,0,0c-0.6,0-1,0.4-1.1,0.9c-0.1,0.7-0.1,1.5-0.2,2.3c-0.3,2.7-0.6,5.4,0.5,8
	c0.9,1.9,1.9,3.7,3.2,5.4c0.4,0.4,1,0.5,1.4,0.1C265.4,232.3,265.4,232.3,265.5,232.2L265.5,232.2z M272.8,226.9
	c1.5-2.6,3.4-6.9,1.1-8.7c-1.2-0.8-2.5-1.4-3.9-1.7c-0.4-0.1-0.7-0.2-1-0.3c-2.3-0.8-4.7-1.3-7.1-1.5c-0.6,0-1,0.5-0.9,1.1
	c0,0.5,0.4,0.9,0.9,0.9c2.2,0.1,4.4,0.6,6.5,1.3c0.3,0.1,0.7,0.2,1,0.3c1.1,0.3,2.2,0.7,3.2,1.3c1.2,1-0.9,5.6-2.9,8.3
	c-1.2,1.4-2.3,1.8-4,2.4l-0.8,0.3c-0.5,0.2-0.8,0.7-0.6,1.3c0.2,0.5,0.7,0.8,1.2,0.6c0,0,0,0,0,0l0.7-0.3c1.9-0.5,3.7-1.5,4.9-3
	C271.9,228.5,272.4,227.7,272.8,226.9L272.8,226.9z M270.6,222.6c0.1-0.1,0.1-0.2,0.1-0.3c0.1-0.4,0.3-1.4-1.3-2.3
	c-0.5-0.3-1.1-0.1-1.3,0.4c-0.1,0.1-0.1,0.2-0.1,0.4c-0.4,0.1-0.7,0.6-0.6,1c0,0.9,0.7,1.6,1.6,1.7
	C269.6,223.5,270.3,223.2,270.6,222.6L270.6,222.6z M261,234.8c0.1-0.3,0.2-0.5,0.1-0.8l-2.8-8.1c-0.2-0.5-0.8-0.8-1.3-0.6
	c-0.5,0.2-0.8,0.7-0.6,1.2l2.8,8.1c0.2,0.5,0.7,0.8,1.2,0.6c0,0,0,0,0,0C260.7,235.2,260.8,235,261,234.8L261,234.8z M256.8,235.7
	c0.1-0.3,0.2-0.5,0.1-0.8l-2.6-7.6c-0.2-0.5-0.8-0.8-1.3-0.6c-0.5,0.2-0.8,0.7-0.6,1.2l2.6,7.6c0.2,0.5,0.7,0.8,1.3,0.6c0,0,0,0,0,0
	C256.5,236.1,256.7,235.9,256.8,235.7L256.8,235.7z M252.4,236.5c0.1-0.2,0.2-0.5,0.1-0.8l-2.4-7.1c-0.2-0.5-0.7-0.8-1.3-0.6
	c0,0,0,0,0,0c-0.5,0.2-0.8,0.7-0.6,1.3l2.4,7.1c0.2,0.5,0.7,0.8,1.3,0.6c0,0,0,0,0,0C252.1,236.9,252.3,236.7,252.4,236.5
	L252.4,236.5z M248.7,237.1c0.1-0.2,0.2-0.5,0.1-0.8l-2.2-6.6c-0.2-0.5-0.7-0.8-1.3-0.6c0,0,0,0,0,0c-0.5,0.2-0.8,0.7-0.6,1.3
	l2.2,6.6c0.2,0.5,0.7,0.8,1.2,0.6c0,0,0,0,0,0C248.4,237.5,248.6,237.3,248.7,237.1z M244.3,238.5c0.1-0.2,0.2-0.5,0.1-0.8l-2.1-6.1
	c-0.2-0.5-0.8-0.8-1.3-0.6c-0.5,0.2-0.8,0.7-0.6,1.2l2.1,6.1c0.2,0.5,0.7,0.8,1.3,0.6c0,0,0,0,0,0
	C244,238.8,244.2,238.7,244.3,238.5L244.3,238.5z M240.2,239.4c0.1-0.2,0.2-0.5,0.1-0.8l-1.9-5.6c-0.2-0.5-0.8-0.8-1.3-0.6
	c-0.5,0.2-0.8,0.7-0.6,1.2l1.9,5.6c0.2,0.5,0.7,0.8,1.3,0.6c0,0,0,0,0,0C239.9,239.8,240,239.6,240.2,239.4L240.2,239.4z M236,240.3
	c0.1-0.2,0.2-0.5,0.1-0.8l-1.7-5.1c-0.2-0.5-0.8-0.8-1.3-0.6c-0.5,0.2-0.8,0.7-0.6,1.2l1.7,5.1c0.2,0.5,0.7,0.8,1.3,0.6c0,0,0,0,0,0
	C235.7,240.7,235.9,240.5,236,240.3L236,240.3z M231.8,241.2c0.1-0.2,0.2-0.5,0.1-0.8l-1.6-4.5c-0.2-0.5-0.7-0.8-1.2-0.6
	c0,0,0,0,0,0c-0.5,0.2-0.8,0.7-0.6,1.3l1.5,4.6c0.2,0.5,0.7,0.8,1.3,0.6C231.5,241.6,231.7,241.4,231.8,241.2L231.8,241.2z
	 M227.7,242.2c0.1-0.2,0.2-0.5,0.1-0.8l-1.4-4c-0.2-0.5-0.8-0.8-1.3-0.6c-0.5,0.2-0.8,0.7-0.6,1.2l1.4,4c0.2,0.5,0.7,0.8,1.3,0.6
	c0,0,0,0,0,0C227.4,242.5,227.6,242.4,227.7,242.2L227.7,242.2z M257.7,225.6c0.1-0.2,0.2-0.5,0.1-0.8l-2.4-8.2
	c-0.2-0.5-0.8-0.8-1.3-0.6c-0.5,0.2-0.7,0.7-0.6,1.1l2.4,8.2c0.2,0.5,0.7,0.8,1.2,0.7C257.4,226,257.6,225.9,257.7,225.6
	L257.7,225.6z M253.7,227c0.1-0.2,0.2-0.5,0.1-0.8l-2.2-7.7c-0.2-0.5-0.7-0.8-1.2-0.7c-0.5,0.2-0.8,0.7-0.7,1.2l2.2,7.7
	c0.1,0.5,0.7,0.8,1.2,0.7c0,0,0,0,0,0C253.4,227.4,253.6,227.2,253.7,227L253.7,227z M249.5,228.2c0.1-0.2,0.2-0.5,0.1-0.8l-2.1-7.2
	c-0.2-0.5-0.7-0.8-1.2-0.7c0,0,0,0,0,0c-0.5,0.2-0.8,0.7-0.7,1.2l2.1,7.2c0.2,0.5,0.7,0.8,1.2,0.7
	C249.1,228.6,249.3,228.4,249.5,228.2L249.5,228.2z M245.9,229.2c0.1-0.2,0.2-0.5,0.1-0.8l-1.9-6.7c-0.2-0.5-0.7-0.8-1.2-0.7
	c0,0,0,0,0,0c-0.5,0.2-0.8,0.7-0.7,1.2l1.9,6.7c0.2,0.5,0.7,0.8,1.2,0.7C245.6,229.6,245.8,229.4,245.9,229.2L245.9,229.2z
	 M241.7,231c0.1-0.2,0.2-0.5,0.1-0.8l-1.8-6.2c-0.2-0.5-0.7-0.8-1.2-0.7c0,0,0,0,0,0c-0.5,0.2-0.8,0.7-0.7,1.2l1.8,6.2
	c0.2,0.5,0.7,0.8,1.2,0.7c0,0,0,0,0,0C241.3,231.4,241.5,231.2,241.7,231L241.7,231z M237.6,232.3c0.1-0.2,0.2-0.5,0.1-0.8l-1.7-5.6
	c-0.1-0.5-0.7-0.8-1.2-0.7c0,0,0,0,0,0c-0.5,0.2-0.8,0.7-0.7,1.2l1.6,5.6c0.2,0.5,0.7,0.8,1.2,0.7
	C237.3,232.7,237.5,232.5,237.6,232.3L237.6,232.3z M233.6,233.7c0.1-0.2,0.2-0.5,0.1-0.8l-1.5-5.1c-0.2-0.5-0.7-0.8-1.2-0.7
	c-0.5,0.2-0.8,0.7-0.7,1.2l1.5,5.1c0.1,0.5,0.7,0.8,1.2,0.7c0,0,0,0,0,0C233.3,234,233.5,233.9,233.6,233.7L233.6,233.7z M229.6,235
	c0.1-0.2,0.2-0.5,0.1-0.8l-1.3-4.6c-0.1-0.5-0.7-0.8-1.2-0.7c0,0,0,0,0,0c-0.5,0.2-0.8,0.7-0.7,1.2l1.3,4.6c0.2,0.5,0.7,0.8,1.2,0.7
	C229.3,235.4,229.5,235.2,229.6,235L229.6,235z M225.6,236.3c0.1-0.2,0.2-0.5,0.1-0.8l-1.2-4.1c-0.2-0.5-0.8-0.8-1.3-0.6
	c-0.5,0.2-0.7,0.7-0.6,1.1l1.2,4.1c0.1,0.5,0.7,0.8,1.2,0.7c0,0,0,0,0,0C225.3,236.7,225.5,236.5,225.6,236.3L225.6,236.3z"/>
<path id="astronaut" class="st0" d="M167,44H155c-0.5,0-1-0.4-1-1c0,0,0,0,0,0v-4c0-0.5,0.4-1,1-1c0,0,0,0,0,0H167c0.5,0,1,0.4,1,1
	c0,0,0,0,0,0v4C168,43.5,167.5,44,167,44C167,44,167,44,167,44z M156,42h9.9v-2H156V42z M161,48c-2.9,0-5.9-0.3-8.8-0.8
	c-0.5-0.1-0.9-0.2-1.3-0.2c-0.5-0.1-0.9-0.5-0.8-1v-7.3c0-4.6,4.4-8.7,9.5-8.7h3.1c5,0,9.3,4,9.3,8.7V46c0,0.5-0.4,0.9-0.8,1
	l-1.2,0.2C167,47.6,164,47.9,161,48L161,48z M152.1,45.1c0.2,0,0.3,0.1,0.5,0.1c2.8,0.5,5.6,0.8,8.5,0.8c2.9-0.1,5.8-0.3,8.6-0.9
	l0.3-0.1v-6.4c0-3.6-3.4-6.7-7.3-6.7h-3.1c-3.9,0-7.5,3.2-7.5,6.7V45.1z M170.9,82h-7.7c-0.5,0-0.9-0.3-1-0.8l-1.3-6l-1.3,6
	c-0.1,0.5-0.5,0.8-1,0.8h-7.6c-0.5,0-1-0.4-1-1c0,0,0,0,0,0V59c0-0.5,0.4-1,1-1c0.5,0,1,0.4,1,1c0,0,0,0,0,0v21h5.8l2.1-9.7
	c0.1-0.5,0.6-0.9,1.2-0.8c0.4,0.1,0.7,0.4,0.8,0.8l2.1,9.7h5.9V54c0-0.5,0.4-1,1-1c0.5,0,1,0.4,1,1c0,0,0,0,0,0v27
	C171.9,81.5,171.5,82,170.9,82C170.9,82,170.9,82,170.9,82z M166,59H156c-0.6,0-1-0.4-1-1v-7c0-0.6,0.4-1,1-1h9.9c0.6,0,1,0.4,1,1v7
	C167,58.6,166.5,59,166,59L166,59L166,59z M157,57h7.9v-5H157V57z M142.8,65.8c-0.4,0-0.7-0.1-1.1-0.2c-1-0.3-1.8-1-2.2-1.9
	c-0.6-1.3-0.7-2.7-0.3-4.1l3.7-11.7c0.8-2.6,3.3-4.2,5.5-3.5l3.1,1c0.5,0.2,0.8,0.7,0.7,1.3c-0.2,0.5-0.7,0.8-1.2,0.7c0,0,0,0,0,0
	l-3.1-1c-1.2-0.4-2.5,0.7-3,2.2l-3.7,11.7c-0.3,0.8-0.2,1.8,0.1,2.6c0.2,0.4,0.6,0.8,1.1,0.9c1.2,0.4,2.5-0.7,3-2.2l1.8-5.6
	c0.2-0.5,0.7-0.8,1.2-0.7c0,0,0,0,0,0c0.5,0.2,0.8,0.7,0.6,1.3l-1.8,5.6C146.7,64.1,145,65.6,142.8,65.8L142.8,65.8z M146.8,61.3
	c-0.1,0-0.2,0-0.3-0.1l-6.1-2.1c-0.5-0.2-0.8-0.8-0.6-1.3c0.2-0.5,0.7-0.8,1.2-0.6c0,0,0,0,0,0l6.1,2.1c0.5,0.2,0.8,0.8,0.6,1.3
	C147.6,61.1,147.2,61.3,146.8,61.3z M147.8,58.3c-0.1,0-0.2,0-0.3-0.1l-6.1-2.1c-0.5-0.2-0.8-0.8-0.6-1.3c0.2-0.5,0.7-0.8,1.2-0.6
	l6.1,2.1c0.5,0.2,0.8,0.8,0.6,1.3C148.6,58.1,148.2,58.3,147.8,58.3z M179.2,65.8c-2.1-0.1-3.9-1.6-4.4-3.7l-1.8-5.6
	c-0.2-0.5,0.1-1.1,0.6-1.2c0.5-0.2,1.1,0.1,1.2,0.6l1.8,5.6c0.5,1.6,1.9,2.6,3,2.2c0.5-0.2,0.8-0.5,1.1-0.9c0.4-0.8,0.4-1.7,0.1-2.6
	l-3.7-11.7c-0.5-1.6-1.9-2.6-3-2.2l-3.1,1c-0.5,0.2-1.1-0.1-1.2-0.7c0,0,0,0,0,0c-0.2-0.5,0.1-1.1,0.7-1.3l3.1-1
	c2.2-0.7,4.7,0.9,5.5,3.5l3.7,11.7c0.5,1.3,0.4,2.8-0.3,4.1c-0.5,0.9-1.3,1.6-2.2,1.9C179.9,65.7,179.5,65.8,179.2,65.8z
	 M175.2,61.3c-0.4,0-0.8-0.3-0.9-0.7c-0.2-0.5,0.1-1.1,0.6-1.3l6.1-2.1c0.5-0.2,1.1,0.1,1.3,0.6c0.2,0.5-0.1,1.1-0.6,1.2l-6.1,2.1
	C175.4,61.3,175.3,61.3,175.2,61.3L175.2,61.3z M174.2,58.3c-0.4,0-0.8-0.3-0.9-0.7c-0.2-0.5,0.1-1.1,0.6-1.3l6.1-2.1
	c0.5-0.2,1.1,0.1,1.3,0.6c0.2,0.5-0.1,1.1-0.6,1.2l-6.1,2.1C174.4,58.3,174.3,58.3,174.2,58.3L174.2,58.3z"/>
<path id="raining" class="st0" d="M87.8,173.1H54.5v-0.1c-4.8-0.7-8.1-5.2-7.4-9.9c0.6-4.2,4.1-7.3,8.3-7.5c0-0.1,0-0.3,0-0.4
	c0-3.8,3-6.9,6.8-7c0.9,0,1.9,0.2,2.7,0.6c1.8-6.5,8.6-10.3,15.1-8.4c5.4,1.5,9,6.5,8.9,12.1c0,0.6,0,1.2-0.1,1.8
	c5.2,0.7,8.8,5.4,8.1,10.6c-0.6,4.3-4,7.6-8.2,8.1v0L87.8,173.1z M55.7,171.4l32.1,0c4.2-0.1,7.6-3.7,7.4-7.9
	c-0.1-4.1-3.4-7.3-7.5-7.4h-1.1l0.2-1.1c0.2-0.8,0.3-1.6,0.3-2.4c0.2-5.8-4.4-10.6-10.2-10.8c-5.2-0.1-9.7,3.5-10.6,8.6l-0.3,1.3
	l-1.1-0.7c-0.8-0.6-1.8-0.9-2.8-0.9c-2.8,0-5.1,2.4-5.1,5.2c0,0.4,0,0.8,0.1,1.1l0.3,1.2l-1.2-0.2c-0.3,0-0.6-0.1-0.9-0.1
	c-3.9,0.2-6.9,3.4-6.7,7.3c0.1,3.6,3,6.5,6.7,6.7L55.7,171.4z M66.3,160.9c0.5,0,0.9,0.4,0.9,0.9l0,0l-0.9,1.7
	c0,0.5-0.4,0.9-0.9,0.9s-0.9-0.4-0.9-0.9l0.9-1.7C65.4,161.3,65.8,160.9,66.3,160.9L66.3,160.9z M72.4,167c0.5,0,0.9,0.4,0.9,0.9
	l0,0l-0.9,1.7c0,0.5-0.4,0.9-0.9,0.8c-0.5,0-0.8-0.4-0.8-0.8l0.9-1.7C71.6,167.4,72,167,72.4,167L72.4,167z M61,177.5
	c0.5,0,0.9,0.4,0.9,0.9c0,0,0,0,0,0l-0.9,1.7c0,0.5-0.4,0.9-0.9,0.9s-0.9-0.4-0.9-0.9l0.9-1.7C60.2,177.9,60.6,177.5,61,177.5
	L61,177.5z M76,160.1c0.5,0,0.9,0.4,0.9,0.9l0,0l-0.9,1.7c0,0.5-0.4,0.9-0.9,0.9s-0.9-0.4-0.9-0.9l0.9-1.7
	C75.1,160.5,75.5,160.1,76,160.1L76,160.1z M63.7,169.7c0.5,0,0.9,0.4,0.9,0.9c0,0,0,0,0,0l-0.9,1.7c0,0.5-0.4,0.9-0.9,0.8
	c-0.5,0-0.8-0.4-0.8-0.8l0.9-1.7C62.8,170,63.2,169.7,63.7,169.7L63.7,169.7z M78.6,174c0.5,0,0.9,0.4,0.9,0.9l-0.9,1.7
	c0,0.5-0.4,0.9-0.9,0.9s-0.9-0.4-0.9-0.9l0.9-1.7C77.7,174.4,78.1,174,78.6,174C78.6,174,78.6,174,78.6,174L78.6,174z M69.8,174
	c0.5,0,0.9,0.4,0.9,0.9c0,0,0,0,0,0l-0.9,1.7c0,0.5-0.4,0.9-0.9,0.9s-0.9-0.4-0.9-0.9l0.9-1.7C68.9,174.4,69.3,174,69.8,174
	L69.8,174z M81.2,166.2c0.5,0,0.9,0.4,0.9,0.9c0,0,0,0,0,0l-0.9,1.7c0,0.5-0.4,0.9-0.9,0.8c-0.5,0-0.8-0.4-0.8-0.8l0.9-1.7
	C80.3,166.6,80.7,166.2,81.2,166.2L81.2,166.2z"/>
<path id="train" class="st0" d="M317,129h-8c-7.1,0.1-12.9-5.6-13-12.7V97.7c0.1-7.1,5.9-12.8,13-12.7h8c7.1-0.1,12.9,5.6,13,12.7
	v18.6C329.9,123.3,324.1,129,317,129z M309,86.9c-6-0.1-10.9,4.7-11,10.7v18.6c0.1,6,5,10.8,11,10.7h8c6,0.1,10.9-4.7,11-10.7V97.7
	c-0.1-6-5-10.8-11-10.7L309,86.9L309,86.9z M320,133h-14v-2.1h14V133z M323,138h-20v-2h20V138z M327.1,141l-4-10.7l1.9-0.7l4,10.7
	L327.1,141z M297.9,141l-1.9-0.7l4-10.7l1.9,0.7L297.9,141z M321,118.2c-2.2,0-3.9-1.8-3.8-4s1.8-3.9,4-3.8c2.1,0,3.8,1.8,3.8,3.9
	C325,116.5,323.2,118.2,321,118.2z M321,112.3c-1.1,0-1.9,0.9-1.9,2c0,1.1,0.9,1.9,2,1.9c1.1,0,1.9-0.9,1.9-2
	C323,113.2,322.1,112.3,321,112.3z M305,118.2c-2.2,0-3.9-1.8-3.8-4s1.8-3.9,4-3.8c2.1,0,3.8,1.8,3.8,3.9
	C309,116.5,307.2,118.2,305,118.2z M305,112.3c-1.1,0-1.9,0.9-1.9,2c0,1.1,0.9,1.9,2,1.9c1.1,0,1.9-0.9,1.9-2
	C307,113.2,306.1,112.3,305,112.3z M324,108h-22V93h22V108z M304,106h18V95h-18V106z"/>
<path id="hearth" class="st0" d="M316.5,77l-1.9-1.5c-11.3-8.7-18.1-13.9-22-20.7c-2.8-5-3.6-10-2.2-14.3c1.2-3.7,3.9-6.7,7.5-8.2
	c1.9-0.9,4-1.3,6.1-1.3c5,0,9.7,2.4,12.6,6.5c2.9-4.1,7.5-6.5,12.5-6.5c2.1,0,4.2,0.4,6.1,1.3c3.5,1.6,6.3,4.6,7.5,8.2
	c1.4,4.3,0.6,9.3-2.2,14.3c-3.9,6.8-10.7,12.1-22,20.7L316.5,77z M303.9,33c-1.8,0-3.6,0.4-5.2,1.1c-3,1.3-5.4,3.9-6.4,7
	c-1.2,3.8-0.5,8.2,2.1,12.7c3.7,6.5,10.4,11.6,21.5,20.1l0.7,0.5l0.6-0.5c11.1-8.5,17.8-13.7,21.5-20.2c2.6-4.5,3.3-8.9,2.1-12.7
	c-1-3.1-3.4-5.7-6.4-7c-1.6-0.7-3.4-1.1-5.2-1.1c-4.9-0.1-9.4,2.6-11.6,6.9l-0.9,2l-0.9-2C313.3,35.6,308.8,32.9,303.9,33L303.9,33z
	"/>
</svg>
