<?xml version="1.0" encoding="utf-8"?>
<!-- Generator: Adobe Illustrator 19.2.1, SVG Export Plug-In . SVG Version: 6.00 Build 0)  -->
<!DOCTYPE svg PUBLIC "-//W3C//DTD SVG 1.1//EN" "http://www.w3.org/Graphics/SVG/1.1/DTD/svg11.dtd">
<svg version="1.1" id="Layer_1" xmlns="http://www.w3.org/2000/svg" xmlns:xlink="http://www.w3.org/1999/xlink" x="0px" y="0px"
	 viewBox="0 0 109.3 88.7" style="enable-background:new 0 0 109.3 88.7;" xml:space="preserve">
<style type="text/css">
	.st0{fill:#529ECC;}
</style>
<g>
	<g>
		<path class="st0" d="M33.6,70.4c4.2,0,15.3,2.5,19.3,3.4v0.9l1.9-0.5l1.9,0.5v-0.9c4-0.9,15.1-3.4,19.3-3.4
			c5.1,0,20.6,3.8,20.7,3.8l2.4,0.6V5.3l-1.5-0.4C96.9,4.7,81.5,1,76,1c-5.1,0-18.5,3.2-21.2,3.8C52.1,4.2,38.7,1,33.6,1
			c-5.5,0-21,3.7-21.6,3.9l-1.5,0.4v69.4l2.4-0.6C13,74.1,28.5,70.4,33.6,70.4z M56.7,8.3c4-0.9,15.1-3.4,19.3-3.4
			s15.2,2.5,19.3,3.4v61.5c-4.7-1.1-14.9-3.3-19.3-3.3c-4.3,0-14.6,2.3-19.3,3.3C56.7,69.8,56.7,8.3,56.7,8.3z M14.3,8.3
			c4-0.9,15.1-3.4,19.3-3.4s15.2,2.5,19.3,3.4v61.5c-4.7-1.1-14.9-3.3-19.3-3.3S19,68.8,14.3,69.9V8.3z M102.9,10.7V80H60.5v3.9H49
			V80H6.6V10.7H2.8v73.2h42.4v3.8h19.3v-3.9h42.4V10.7H102.9z"/>
	</g>
</g>
</svg>
