<?xml version="1.0" encoding="utf-8"?>
<!-- Generator: Adobe Illustrator 19.2.1, SVG Export Plug-In . SVG Version: 6.00 Build 0)  -->
<!DOCTYPE svg PUBLIC "-//W3C//DTD SVG 1.1//EN" "http://www.w3.org/Graphics/SVG/1.1/DTD/svg11.dtd">
<svg version="1.1" id="Layer_1" xmlns="http://www.w3.org/2000/svg" xmlns:xlink="http://www.w3.org/1999/xlink" x="0px" y="0px"
	 viewBox="0 0 561 101" style="enable-background:new 0 0 561 101;" xml:space="preserve">
<style type="text/css">
	.st0{display:none;}
	.st1{display:inline;fill:#D1D3D4;}
	.st2{display:inline;}
	.st3{fill:#D1D3D4;}
	.st4{fill:#529ECC;}
</style>
<path d="M194.5,70.6c0-6.3-7.3-10.8-21.8-13.5h-0.2c-6.4-1.2-12-3-16.7-5.2c-4.7-2.2-8.1-5.1-10.3-8.6c-2.2-3.5-3.3-7.1-3.3-10.8
	c0-7.2,3.2-13.1,9.5-17.7C158,10.3,165.3,8,173.5,8c3.6,0,7.3,0.6,11.1,1.9c3.8,1.2,6.6,2.4,8.5,3.5c1.9,1.1,4.3,2.6,7.4,4.6
	c1.4,1,2.3,2.3,2.7,4.1c0.4,1.7,0.1,3.3-0.9,4.8c-0.9,1.4-2.3,2.3-4,2.7c-1.7,0.4-3.3,0.1-4.8-0.9c-3.9-2.6-7.3-4.6-10.3-5.9
	c-3-1.3-6.2-2-9.6-2c-5.4,0-9.9,1.3-13.4,3.8c-3.5,2.6-5.2,5.3-5.2,8.2c0,1.4,0.3,2.6,1,3.6c2.3,3.8,8.5,6.6,18.7,8.5h0.2
	c6.9,1.4,12.6,3.1,17.1,5.2c10.2,5,15.3,12,15.3,20.8c0,7.7-3.4,13.9-10.1,18.9c-6.8,4.9-14.5,7.4-23.4,7.4
	c-10.8-0.1-21.3-4.2-31.6-12.4c-1.3-1.1-2.1-2.5-2.3-4.3c-0.2-1.8,0.2-3.4,1.3-4.7c1.1-1.3,2.5-2.1,4.3-2.3c1.8-0.2,3.4,0.3,4.7,1.4
	c7.9,6.4,15.8,9.6,23.6,9.5c6.2,0,11.2-1.4,15-4.3C192.6,77,194.5,73.9,194.5,70.6z"/>
<path d="M284,12.4c1.3,1.3,2,2.9,2,4.8c0,1.9-0.7,3.5-2,4.9c-1.4,1.4-2.9,2-4.8,2h-19.7v66c0,1.9-0.7,3.5-2,4.8
	c-1.3,1.3-2.9,2-4.8,2c-1.9,0-3.5-0.7-4.8-2c-1.3-1.3-2-2.9-2-4.8v-66h-19.5c-1.9,0-3.5-0.7-4.8-2c-1.3-1.4-2-3-2-4.9
	c0-1.9,0.7-3.5,2-4.8c1.3-1.3,2.9-2,4.8-2h52.8C281.1,10.4,282.7,11.1,284,12.4z"/>
<path d="M314.9,83.9c-8.2-8.7-12.3-19.2-12.3-31.4c0-12.2,4.1-22.7,12.3-31.4c8.2-8.7,18.2-13.1,30-13.1c11.8,0,21.8,4.4,30,13.3
	c8.2,8.9,12.3,19.3,12.3,31.3c0,12-4.2,22.4-12.5,31.2c-3.7,4.1-8.2,7.4-13.4,9.7c-5.2,2.4-10.6,3.5-16.2,3.5
	C333.2,97,323.1,92.6,314.9,83.9z M316.7,52.5c0,8.3,2.8,15.5,8.3,21.4c5.5,6,12.2,9,20,9s14.4-3,19.9-9.1
	c5.5-6.1,8.2-13.2,8.2-21.3s-2.7-15.3-8.2-21.3c-5.4-6.1-12.1-9.1-20-9.1c-7.9,0-14.5,3-20,9C319.4,37,316.7,44.1,316.7,52.5z"/>
<path d="M455.5,57.3c5.6,4.3,8.4,10.3,8.4,17.9c-0.1,2.7,0.1,5.2,0.5,7.3c2.1,0.7,3.6,2.1,4.3,4.3c0.7,2.2,0.4,4.2-1,6.1
	c-1.4,1.9-3.4,2.8-6.1,2.8h-0.1c-3.7,0-6.6-1.9-8.8-5.7c-1.7-3.6-2.6-8.6-2.6-14.8c-0.2-3.8-1.9-6.8-5.2-8.9c-2.1-1.4-4.5-2.4-6.9-3
	h-14.6v26.8c0,1.9-0.7,3.5-2,4.8c-1.4,1.3-3,2-4.9,2c-1.9,0-3.5-0.7-4.8-2c-1.3-1.3-2-2.9-2-4.8V17.2c0-1.9,0.7-3.5,2-4.8
	c1.3-1.3,2.9-2,4.8-2h22.1c7.3,0,13.6,2.6,18.7,7.8c5.1,5.2,7.7,11.7,7.7,19.4C465.1,45.4,461.9,51.9,455.5,57.3z M438.7,49.6
	c3.5,0,6.6-1.2,9-3.7c2.5-2.5,3.7-5.5,3.7-9c0-3.5-1.2-6.5-3.7-9c-2.5-2.5-5.5-3.8-9-3.8h-15.2v25.5H438.7z"/>
<path d="M542.5,11.4c1.9-0.3,3.5,0.1,5,1.2c1.5,1.1,2.4,2.6,2.7,4.5c0.3,1.9-0.1,3.5-1.2,5l-25.3,34.7v33.4c0,1.9-0.7,3.5-2,4.8
	c-1.3,1.3-2.9,2-4.8,2c-1.9,0-3.5-0.7-4.8-2c-1.4-1.3-2-2.9-2-4.8V56.8L484.9,22c-1.2-1.5-1.6-3.1-1.4-4.9c0.2-1.8,1.2-3.3,2.7-4.5
	c1.6-1.2,3.3-1.6,5.1-1.3c1.8,0.3,3.3,1.2,4.3,2.8l21.1,28.9l21.1-28.9C539.1,12.6,540.6,11.6,542.5,11.4z"/>
<g class="st0">
	<path class="st1" d="M550.1,17c-0.2-1.5-0.9-2.7-1.9-3.7l-31.4,43.2l-31.4-43.1c-1,1-1.7,2.3-1.9,3.7c-0.2,1.8,0.2,3.5,1.4,4.9
		L510,56.8v33.4c0,1.9,0.7,3.5,2,4.8c1.4,1.3,3,2,4.8,2c1.9,0,3.4-0.7,4.8-2c1.3-1.3,2-2.9,2-4.8V56.8L548.9,22
		C550,20.6,550.4,18.9,550.1,17z"/>
	<g class="st2">
		<path class="st3" d="M542.6,11.5c-3.3-1.1-9.4-3.2-12.8-4.2c-4.8-1.5-11.2,11.8-11.2,11.8v29.3C531.1,20,538.8,13,542.6,11.5z"/>
		<g>
			<path class="st3" d="M545.1,14.5l1.4-1.6c0,0,0.4-0.6-2.3-0.7c-10.4,6.3-19.5,25.6-22.5,32.5l4.9-6.9
				C534,22.3,540.4,14.6,545.1,14.5z"/>
		</g>
		<g>
			<path class="st3" d="M543.5,16.9l0.8-1c0,0,0.2-0.3-0.4-0.1c-6.9,3.9-13.1,15.9-15.3,20.3l3.3-4.2C537,21.9,541.8,18,543.5,16.9z
				"/>
		</g>
	</g>
	<g class="st2">
		<path class="st3" d="M491.5,11.5c3.3-1.1,9.4-3.2,12.8-4.2c4.8-1.5,11.2,11.8,11.2,11.8v29.3C503,20,495.3,13,491.5,11.5z"/>
		<g>
			<path class="st3" d="M489,14.5l-1.4-1.6c0,0-0.4-0.6,2.3-0.7c10.4,6.3,19.5,25.6,22.5,32.5l-4.9-6.9
				C500,22.3,493.7,14.6,489,14.5z"/>
		</g>
		<g>
			<path class="st3" d="M490.6,16.9l-0.8-1c0,0-0.2-0.3,0.4-0.1c6.9,3.9,13.1,15.9,15.3,20.3l-3.3-4.2
				C497.1,21.9,492.3,18,490.6,16.9z"/>
		</g>
	</g>
	<g class="st2">
		<path class="st3" d="M550.1,17c-0.2-1.5-0.9-2.7-1.9-3.7l-31.4,43.2l-31.4-43.1c-1,1-1.7,2.3-1.9,3.7c-0.2,1.8,0.2,3.5,1.4,4.9
			L510,56.8v33.4c0,1.9,0.7,3.5,2,4.8c1.4,1.3,3,2,4.8,2c1.9,0,3.4-0.7,4.8-2c1.3-1.3,2-2.9,2-4.8V56.8L548.9,22
			C550,20.6,550.4,18.9,550.1,17z"/>
		<g>
			<path class="st3" d="M542.6,11.5c-3.3-1.1-9.4-3.2-12.8-4.2c-4.8-1.5-11.2,11.8-11.2,11.8v29.3C531.1,20,538.8,13,542.6,11.5z"/>
			<g>
				<path class="st3" d="M545.1,14.5l1.4-1.6c0,0,0.4-0.6-2.3-0.7c-10.4,6.3-19.5,25.6-22.5,32.5l4.9-6.9
					C534,22.3,540.4,14.6,545.1,14.5z"/>
			</g>
			<g>
				<path class="st3" d="M543.5,16.9l0.8-1c0,0,0.2-0.3-0.4-0.1c-6.9,3.9-13.1,15.9-15.3,20.3l3.3-4.2C537,21.9,541.8,18,543.5,16.9
					z"/>
			</g>
		</g>
		<g>
			<path class="st3" d="M491.5,11.5c3.3-1.1,9.4-3.2,12.8-4.2c4.8-1.5,11.2,11.8,11.2,11.8v29.3C503,20,495.3,13,491.5,11.5z"/>
			<g>
				<path class="st3" d="M489,14.5l-1.4-1.6c0,0-0.4-0.6,2.3-0.7c10.4,6.3,19.5,25.6,22.5,32.5l-4.9-6.9
					C500,22.3,493.7,14.6,489,14.5z"/>
			</g>
			<g>
				<path class="st3" d="M490.6,16.9l-0.8-1c0,0-0.2-0.3,0.4-0.1c6.9,3.9,13.1,15.9,15.3,20.3l-3.3-4.2
					C497.1,21.9,492.3,18,490.6,16.9z"/>
			</g>
		</g>
	</g>
</g>
<g class="st0">
	<path class="st1" d="M550.1,17c-0.2-1.5-0.9-2.7-1.9-3.7l-31.4,43.2l-31.4-43.1c-1,1-1.7,2.3-1.9,3.7c-0.2,1.8,0.2,3.5,1.4,4.9
		L510,56.8v33.4c0,1.9,0.7,3.5,2,4.8c1.4,1.3,3,2,4.8,2c1.9,0,3.4-0.7,4.8-2c1.3-1.3,2-2.9,2-4.8V56.8L548.9,22
		C550,20.6,550.4,18.9,550.1,17z"/>
	<g class="st2">
		<path class="st3" d="M542.6,11.5c-3.3-1.1-9.4-3.2-12.8-4.2c-4.8-1.5-11.2,11.8-11.2,11.8v29.3C531.1,20,538.8,13,542.6,11.5z"/>
		<g>
			<path class="st3" d="M545.1,14.5l1.4-1.6c0,0,0.4-0.6-2.3-0.7c-10.4,6.3-19.5,25.6-22.5,32.5l4.9-6.9
				C534,22.3,540.4,14.6,545.1,14.5z"/>
		</g>
		<g>
			<path class="st3" d="M543.5,16.9l0.8-1c0,0,0.2-0.3-0.4-0.1c-6.9,3.9-13.1,15.9-15.3,20.3l3.3-4.2C537,21.9,541.8,18,543.5,16.9z
				"/>
		</g>
	</g>
	<g class="st2">
		<path class="st3" d="M491.5,11.5c3.3-1.1,9.4-3.2,12.8-4.2c4.8-1.5,11.2,11.8,11.2,11.8v29.3C503,20,495.3,13,491.5,11.5z"/>
		<g>
			<path class="st3" d="M489,14.5l-1.4-1.6c0,0-0.4-0.6,2.3-0.7c10.4,6.3,19.5,25.6,22.5,32.5l-4.9-6.9
				C500,22.3,493.7,14.6,489,14.5z"/>
		</g>
		<g>
			<path class="st3" d="M490.6,16.9l-0.8-1c0,0-0.2-0.3,0.4-0.1c6.9,3.9,13.1,15.9,15.3,20.3l-3.3-4.2
				C497.1,21.9,492.3,18,490.6,16.9z"/>
		</g>
	</g>
</g>
<g class="st0">
	<g class="st2">
		<path class="st3" d="M549.7,14.9c-4-1.4-11.4-3.9-15.5-5.2C528.4,7.9,520.5,24,520.5,24v35.6C535.7,25.2,545.1,16.7,549.7,14.9z"
			/>
		<g>
			<path class="st3" d="M552.8,18.4l1.7-2c0,0,0.5-0.7-2.8-0.9C539,23.2,528,46.7,524.3,55.1l6-8.4C539.3,28,547.1,18.6,552.8,18.4z
				"/>
		</g>
		<g>
			<path class="st3" d="M550.8,21.4l1-1.3c0,0,0.2-0.4-0.5-0.2c-8.4,4.7-16,19.3-18.6,24.6l4-5.1C542.9,27.5,548.8,22.8,550.8,21.4z
				"/>
		</g>
	</g>
	<g class="st2">
		<path class="st3" d="M487.6,14.9c4-1.4,11.4-3.9,15.5-5.2c5.8-1.8,13.7,14.3,13.7,14.3v35.6C501.6,25.2,492.2,16.7,487.6,14.9z"/>
		<g>
			<path class="st3" d="M484.5,18.4l-1.7-2c0,0-0.5-0.7,2.8-0.9c12.7,7.7,23.7,31.2,27.4,39.6l-6-8.4C498,28,490.2,18.6,484.5,18.4z
				"/>
		</g>
		<g>
			<path class="st3" d="M486.5,21.4l-1-1.3c0,0-0.2-0.4,0.5-0.2c8.4,4.7,16,19.3,18.6,24.6l-4-5.1C494.4,27.5,488.5,22.8,486.5,21.4
				z"/>
		</g>
	</g>
	<path class="st1" d="M525.2,72l32.2-44.4c1.3-1.8,1.8-3.8,1.4-6.1c-0.3-1.8-1.1-3.3-2.3-4.5l-38.2,52.6l-38.2-52.4
		c-1.3,1.3-2,2.7-2.3,4.5c-0.3,2.2,0.2,4.2,1.7,6L511.1,72H525.2z"/>
	<path class="st1" d="M511.2,71c0,0.2,0,16.2,0,16.4V88c0,3.9,3.2,7.1,7.1,7.1c3.9,0,7.1-3.2,7.1-7.1v-0.5c0-0.2,0-16.3,0-16.4
		H511.2z"/>
</g>
<g>
	<g>
		<path class="st4" d="M36.3,77.7c4.2,0,15.3,2.5,19.3,3.4V82l1.9-0.5l1.9,0.5v-0.9c4-0.9,15.1-3.4,19.3-3.4
			c5.1,0,20.6,3.8,20.7,3.8l2.4,0.6V12.6l-1.5-0.4c-0.7-0.2-16.1-3.9-21.6-3.9c-5.1,0-18.5,3.2-21.2,3.8c-2.7-0.6-16.1-3.8-21.2-3.8
			c-5.5,0-21,3.7-21.6,3.9l-1.5,0.4V82l2.4-0.6C15.7,81.4,31.2,77.7,36.3,77.7z M59.4,15.6c4-0.9,15.1-3.4,19.3-3.4
			c4.2,0,15.2,2.5,19.3,3.4v61.5c-4.7-1.1-14.9-3.3-19.3-3.3c-4.3,0-14.6,2.3-19.3,3.3V15.6z M17,15.6c4-0.9,15.1-3.4,19.3-3.4
			s15.2,2.5,19.3,3.4v61.5c-4.7-1.1-14.9-3.3-19.3-3.3S21.7,76.1,17,77.2V15.6z M105.6,18v69.3H63.2v3.9H51.7v-3.9H9.3V18H5.5v73.2
			h42.4V95h19.3v-3.9h42.4V18H105.6z"/>
	</g>
</g>
</svg>
